<mxfile host="app.diagrams.net" modified="2024-01-04T09:18:18.063Z" agent="Mozilla/5.0 (Windows NT 10.0; Win64; x64) AppleWebKit/537.36 (KHTML, like Gecko) Chrome/120.0.0.0 Safari/537.36" version="22.1.16" etag="OfkrwWT8_tHxsM4Y-CS7" type="github">
  <diagram name="PÃ¡gina-1" id="4o_y28Qx3Zz9WGiGOu8f">
    <mxGraphModel>
      <root>
        <mxCell id="0" />
        <mxCell id="1" parent="0" />
      </root>
    </mxGraphModel>
  </diagram>
</mxfile>
